<svg width="210" height="90" viewBox="0 0 210 90" fill="none" xmlns="http://www.w3.org/2000/svg">
<g clip-path="url(#clip0_4_758)">
<path d="M23.7562 50.6291C23.7562 51.1698 23.7562 51.5302 23.7562 51.8305C23.7562 53.8729 23.7562 55.9753 23.7562 58.0177C23.7562 59.3993 23.0292 60 21.6964 60C20.5453 59.9399 20 59.3392 20 58.0177C20 50.3889 20 42.76 20 35.1913C20 33.9298 20.4241 33.269 21.454 33.0288C22.5445 32.9086 23.6957 33.5093 23.7562 34.4704C23.7562 34.5906 23.7562 34.8909 23.7562 35.0711C24.5438 34.4704 25.5132 33.8097 26.3008 33.5694C32.0563 31.5871 37.9936 35.6718 38.2965 41.6788C38.4783 44.9826 37.6907 47.926 35.1461 50.1486C32.2986 52.6715 28.3001 53.092 24.9073 51.2899C24.6044 51.1097 24.3015 50.9295 23.7562 50.6291ZM29.2088 36.693C27.8154 36.693 26.6643 37.1736 25.6344 38.1347C23.2716 40.4173 23.1504 44.5021 25.3314 46.9048C27.4519 49.2475 31.3899 49.2475 33.268 46.6646C33.9344 45.7635 34.3585 44.5621 34.5403 43.4208C35.0855 39.8166 32.541 36.693 29.2088 36.693ZM190 48.6469C190 47.8059 189.758 45.2229 189.515 43.4208C189.394 42.3996 189.091 41.3784 188.788 40.3573C187.334 35.0711 182.245 32.1277 176.974 33.5093C169.28 35.5517 168.068 44.9225 172.309 49.668C174.793 52.4312 177.944 52.7917 181.397 52.251C182.488 52.0708 183.517 51.7705 184.547 51.35C185.517 50.9295 185.88 50.0285 185.577 49.2475C185.274 48.2864 184.426 47.8659 183.336 47.9861C183.033 48.0462 182.73 48.1663 182.427 48.2264C181.155 48.4066 179.882 48.7069 178.61 48.767C177.035 48.8271 175.763 48.0462 174.854 46.7847C173.763 45.343 173.642 43.6611 173.763 41.9791C174.006 39.276 176.126 37.2336 179.034 36.8732C181.397 36.5729 184.184 38.1347 184.85 40.4774C185.456 42.4597 185.699 44.5021 186.062 46.5444C186.304 47.9861 186.244 49.4278 186.426 50.8094C186.547 51.7705 187.395 52.3712 188.364 52.3111C189.334 52.251 190 51.5302 190 50.5691C190 50.0285 190 48.8871 190 48.6469ZM60.2281 48.6469C60.2281 47.8059 59.9858 45.2229 59.7434 43.4208C59.6222 42.3996 59.3193 41.3784 59.0164 40.3573C57.623 35.0711 52.4733 32.1277 47.2024 33.5093C39.5082 35.5517 38.2965 44.9225 42.5374 49.668C45.0214 52.4312 48.1718 52.7917 51.6251 52.251C52.7156 52.0708 53.7455 51.7705 54.7755 51.35C55.7448 50.9295 56.1083 50.0285 55.8054 49.2475C55.5025 48.2864 54.6543 47.8659 53.5638 47.9861C53.2609 48.0462 52.9579 48.1663 52.655 48.2264C51.3828 48.4066 50.1105 48.7069 48.8382 48.767C47.263 48.8271 45.9907 48.0462 45.082 46.7847C43.9914 45.343 43.8703 43.6611 43.9914 41.9791C44.2338 39.276 46.3542 37.2336 49.2623 36.8732C51.6251 36.5729 54.412 38.1347 55.0784 40.4774C55.6843 42.4597 55.9266 44.5021 56.2901 46.5444C56.5324 47.9861 56.4718 49.4278 56.6536 50.8094C56.7748 51.7705 57.623 52.3712 58.5923 52.3111C59.5617 52.251 60.2281 51.5302 60.2281 50.5691C60.2281 50.0285 60.2281 48.8871 60.2281 48.6469ZM141.29 52.4312C135.777 52.4312 131.839 48.4666 131.839 42.8201C131.839 37.1736 135.777 33.209 141.29 33.1489C146.864 33.1489 150.802 37.1135 150.802 42.7C150.862 48.4066 146.924 52.4312 141.29 52.4312ZM147.046 42.8802C147.046 39.276 144.804 36.8732 141.351 36.8732C137.958 36.8132 135.595 39.2159 135.535 42.76C135.535 46.3041 137.837 48.767 141.23 48.767C144.683 48.767 147.046 46.4243 147.046 42.8802ZM101.91 45.9437C100.032 42.0993 98.154 38.1947 96.2153 34.3503C95.67 33.209 94.5795 32.7885 93.6101 33.209C92.5802 33.6895 92.3379 34.7107 92.8831 35.9121C92.9437 36.0923 93.0649 36.2725 93.1255 36.4527C95.3065 40.8979 97.4269 45.343 99.6686 49.7281C100.396 51.1097 100.335 52.191 99.6686 53.4524C99.0627 54.5937 98.7598 54.7739 97.427 54.5937C96.1547 54.4135 95.2459 54.8941 95.0036 56.0354C94.7612 56.9965 95.4883 57.8976 96.6999 58.1979C99.4262 58.9788 101.85 57.7174 103.061 54.8941C103.728 53.3923 104.212 51.7705 104.879 50.2687C107.12 45.4632 109.483 40.7177 111.725 35.9722C112.331 34.7708 111.967 33.6895 110.937 33.209C109.907 32.7284 108.877 33.209 108.272 34.4104C107.12 36.8732 105.969 39.3361 104.818 41.7989C104.031 43.4809 103.243 45.1027 102.334 46.9649C102.213 46.4843 102.092 46.184 101.91 45.9437ZM63.8026 33.209C62.8938 33.5093 62.5303 34.2902 62.5303 35.6118C62.5909 40.2972 62.6515 44.9826 62.712 49.668C62.712 50.0885 62.7121 50.509 62.8332 50.9295C63.015 51.8305 63.8632 52.4312 64.7113 52.3712C65.5595 52.3111 66.3471 51.6503 66.4683 50.7493C66.5289 50.4489 66.5289 50.0885 66.5289 49.7882C66.5289 47.2653 66.4683 44.7423 66.5289 42.2194C66.5895 40.5375 67.0135 38.9757 68.2858 37.7743C69.3763 36.7531 70.7092 36.3927 72.1026 36.8131C73.4355 37.2336 74.0413 38.375 74.1625 39.6965C74.2231 40.5375 74.2837 41.3184 74.2837 42.1593C74.2837 44.8625 74.2837 47.5055 74.2837 50.2087C74.2837 51.4701 75.1319 52.3712 76.1618 52.3111C77.1917 52.3111 77.9793 51.4101 77.9793 50.1486C77.9793 46.7847 78.0399 43.3607 77.9188 39.9968C77.737 35.0111 74.1019 32.1878 69.2552 33.1489C68.2252 33.3291 67.0741 33.9298 66.1048 34.5906C66.226 33.4493 64.7719 32.9086 63.8026 33.209ZM115.057 33.209C114.148 33.5093 113.785 34.2902 113.785 35.6118C113.845 40.2972 113.906 44.9826 113.967 49.668C113.967 50.0885 113.967 50.509 114.088 50.9295C114.269 51.8305 115.118 52.4312 115.966 52.3712C116.814 52.3111 117.602 51.6503 117.723 50.7493C117.783 50.4489 117.783 50.0885 117.783 49.7882C117.783 47.2653 117.723 44.7423 117.783 42.2194C117.844 40.5375 118.268 38.9757 119.54 37.7743C120.631 36.7531 121.964 36.3927 123.357 36.8131C124.69 37.2336 125.296 38.375 125.417 39.6965C125.478 40.5375 125.538 41.3184 125.538 42.1593C125.538 44.8625 125.538 47.5055 125.538 50.2087C125.538 51.4701 126.386 52.3712 127.416 52.3111C128.446 52.3111 129.234 51.4101 129.234 50.1486C129.234 46.7847 129.294 43.3607 129.173 39.9968C128.991 35.0111 125.356 32.1878 120.51 33.1489C119.48 33.3291 118.329 33.9298 117.359 34.5906C117.42 33.4493 115.966 32.9086 115.057 33.209ZM160.495 46.9048C160.011 45.9437 159.587 45.0427 159.102 44.0816C157.587 40.958 156.073 37.8343 154.558 34.7107C153.952 33.4493 152.801 32.9086 151.832 33.3892C150.741 33.9298 150.499 34.8909 151.165 36.2725C153.528 41.1382 155.952 46.0038 158.314 50.8694C158.799 51.8305 159.465 52.6114 160.617 52.6114C161.828 52.6114 162.434 51.8305 162.919 50.8694C163.888 48.767 164.918 46.7246 165.887 44.6823C167.281 41.7989 168.674 38.9156 170.007 36.0322C170.492 35.0111 170.249 34.05 169.341 33.5093C168.493 33.0288 167.523 33.209 166.857 34.0499C166.614 34.3503 166.433 34.7708 166.251 35.1312C164.979 37.8343 163.706 40.5375 162.434 43.3007C161.828 44.5021 161.283 45.7635 160.677 46.9649C160.677 46.9649 160.556 46.9048 160.495 46.9048ZM82.7655 43.1205C82.7655 44.6823 82.7049 46.2441 82.7655 47.8059C82.9473 51.7104 86.8247 53.8729 90.278 51.9507C91.1262 51.4701 91.4897 50.6291 91.1867 49.7882C90.8838 48.9472 90.0356 48.4666 89.1269 48.5868C88.7028 48.6469 88.3393 48.8271 87.9152 48.8271C87.0064 48.8871 86.5217 48.5267 86.5217 47.6257C86.5217 44.5021 86.5217 41.3784 86.5217 38.2548C86.5217 37.9545 86.5217 37.4739 86.5217 37.4739C86.5217 37.4739 87.067 37.4739 87.3093 37.4739C87.9758 37.4739 88.5816 37.4739 89.248 37.4739C90.4597 37.4138 91.2473 36.693 91.2473 35.6718C91.2473 34.5906 90.5203 33.8097 89.3086 33.7496C88.6422 33.6895 87.9758 33.7496 87.3093 33.7496C87.067 33.7496 86.5823 33.7496 86.5823 33.7496C86.5823 33.7496 86.5823 33.269 86.5823 33.0288C86.5823 32.3079 86.5823 31.5871 86.5823 30.8062C86.5217 29.7249 85.7947 29.0642 84.8254 29.0041C83.6743 28.944 82.9473 29.5447 82.7655 30.6861C82.7049 31.0465 82.7655 31.467 82.7655 31.8274C82.7655 32.7885 82.7655 33.6895 82.7655 33.6895C82.7655 33.6895 81.7962 33.6295 81.0691 33.7496C80.8874 33.7496 80.7662 33.8097 80.5845 33.8697C79.7969 34.11 79.2516 34.6506 79.191 35.5517C79.1304 36.4527 79.6151 37.0534 80.4027 37.2937C80.8268 37.4739 81.3721 37.4739 81.7962 37.4739C82.1597 37.4739 82.8261 37.4739 82.8261 37.4739C82.8261 37.4739 82.7655 41.5586 82.7655 43.1205Z" fill="black"/>
</g>
<defs>
<clipPath id="clip0_4_758">
<rect width="210" height="89.9999" fill="white"/>
</clipPath>
</defs>
</svg>
