<svg width="210" height="90" viewBox="0 0 210 90" fill="none" xmlns="http://www.w3.org/2000/svg">
<g clip-path="url(#clip0_4_753)">
<path d="M60.1024 64.051C60.5528 63.4252 61.0595 62.7994 61.4536 62.1736C63.1988 59.6135 64.0433 56.6552 64.9441 53.6968C66.4078 48.7473 69.0539 44.4805 73.0511 41.124C73.7829 40.4982 74.6274 39.9861 75.5282 39.5879C78.3994 38.3363 81.2143 39.9861 81.6647 43.1151C81.721 43.3427 81.721 43.5134 81.8899 43.7978C83.0159 40.3844 84.1419 36.9709 85.2115 33.6713C84.2545 33.1024 83.2411 32.761 82.5092 32.0783C80.3699 30.144 80.1447 27.5839 80.8203 24.967C81.9462 20.5864 84.7612 17.5143 88.5332 15.3524C92.1926 13.2475 96.1898 12.451 100.3 13.3612C104.578 14.2715 107.449 17.7987 108.012 22.4638C108.688 28.1529 106.83 32.9317 103.171 37.1416C103.114 37.2554 103.002 37.3123 102.889 37.483C105.029 39.4741 106.492 41.8067 107.393 44.765C109.476 38.6208 112.46 33.3299 117.977 29.8596V29.8027C117.527 29.0631 116.626 28.1529 116.795 27.5839C117.133 26.2755 117.921 25.0807 118.709 23.9429C118.991 23.5447 119.723 23.374 120.286 23.2602C122.763 22.6344 125.24 22.0655 127.717 21.5535C128.28 21.4397 128.561 21.1553 128.73 20.5864C129.237 18.8796 129.856 17.1729 130.419 15.4662C130.757 14.3853 131.433 13.6457 132.559 13.475C132.84 13.4181 134.022 13.1337 134.36 13.0768C135.599 12.7354 136.105 13.5319 137.288 15.3524C137.457 15.6369 137.344 16.0351 137.231 16.3765C136.95 17.4005 136.612 18.4245 136.218 19.5623C137.006 19.3917 137.682 19.2779 138.301 19.0503C138.526 18.9934 138.695 18.5952 138.808 18.3107C139.371 16.604 139.934 14.8973 140.497 13.1906C140.835 12.1665 141.51 11.5407 142.523 11.3132C142.918 11.2563 143.255 11.1425 143.649 11.0856C145.395 10.6874 146.971 11.7114 147.309 13.475C147.365 13.7595 147.309 14.0439 147.196 14.3284C146.915 15.2386 146.633 16.1489 146.295 17.2867C147.59 16.9454 148.716 16.6609 149.786 16.2627C151.475 15.58 151.982 15.6938 153.051 17.2298C153.164 17.3436 153.22 17.4574 153.333 17.6281C154.74 19.5623 154.628 20.9277 153.108 22.7482C152.882 23.0327 152.545 23.3171 152.713 23.6016C153.22 24.2274 152.939 25.0239 152.77 25.5359C151.137 30.6561 149.448 35.7762 147.872 40.8964C147.478 42.148 147.14 44.1961 147.14 44.4236C147.14 44.6512 147.196 45.1063 147.421 44.9925C147.647 44.8788 148.322 44.0823 148.66 43.5703C150.405 40.9533 151.531 38.1087 152.094 34.9798C152.151 34.6384 152.263 34.2402 152.432 33.8988C152.939 32.9886 153.896 32.8179 154.571 33.6144C155.078 34.1833 155.528 34.7522 156.035 35.378C157.668 37.483 157.837 39.7586 156.654 42.148C156.148 43.2289 155.528 44.253 154.909 45.3908C158.118 44.6512 161.215 43.9116 164.367 43.172C165.212 42.9445 166 42.7738 166.676 43.6272C167.464 44.6512 168.421 45.5046 167.802 46.9837C167.407 48.0078 167.07 49.0318 166.788 50.0558C166.45 51.2505 165.718 51.9332 164.536 52.1608C158.625 53.4124 152.77 54.7778 146.915 55.9725C137.794 57.8499 128.674 59.6704 119.497 61.4909C114.43 62.5149 109.42 63.4252 104.353 64.4492C103.903 64.563 103.396 64.9043 103.114 65.2457C98.0476 71.845 91.7985 76.6238 83.6352 78.5581C81.4395 79.0701 79.1876 79.2408 76.9357 78.5012C73.7266 77.4772 71.9814 74.2913 72.7133 70.9917C73.1074 69.228 73.9518 67.692 75.2467 66.2697C70.1798 69.1143 68.322 68.5453 65.6196 65.7008C65.1693 66.3266 64.7752 67.0093 64.2122 67.5782C63.3114 68.4885 62.4669 69.3987 61.3973 70.0814C59.3142 71.4468 57.2312 71.1054 54.9792 69.2849C54.2473 69.9676 53.6281 70.7072 52.8399 71.3899C48.899 74.7464 44.1136 73.3242 42.5935 68.3747C41.4676 64.051 42.0306 60.0117 43.5506 56.0863C45.0144 52.3315 47.2663 49.0887 50.4753 46.6424C52.8962 44.765 55.5422 43.7409 58.6949 45.1063C59.4831 42.7738 60.215 40.4982 60.9469 38.2225C61.735 35.8331 62.5232 33.5006 63.2551 31.1112C63.5929 30.0871 64.2122 29.4613 65.2819 29.2338C65.6196 29.1769 65.9574 29.12 66.2952 29.0062C68.0968 28.608 69.6168 29.5182 70.0672 31.3387C70.1798 31.737 70.0109 32.1921 69.8983 32.5903C66.8019 42.2049 63.6492 51.7625 60.4965 61.3771C60.215 62.1736 60.1024 63.0269 59.8772 63.8803C59.9335 63.9941 60.0461 63.9941 60.1024 64.051ZM99.2862 37.1416C99.5677 36.914 99.7929 36.7434 100.018 36.5158C104.409 32.3059 106.661 27.2426 105.366 21.0415C104.635 17.4005 102.101 15.0111 98.6106 14.6128C92.3052 13.9301 87.3509 16.3765 83.6915 21.5535C82.3966 23.374 81.721 25.479 82.0588 27.7546C82.3403 29.6889 83.5789 30.8836 85.4367 30.9974C89.3213 31.3387 91.6296 27.8115 92.1363 24.7394C92.1363 24.5687 92.1363 24.2843 91.8548 24.2274C91.5733 24.1705 91.517 24.4549 91.4044 24.5687C91.2355 24.7963 91.2355 25.0807 91.0666 25.3652C90.1095 27.2426 88.7021 28.5511 86.5627 28.7787C85.0989 28.9493 83.8604 28.096 83.7478 26.6168C83.6915 25.5928 83.8604 24.4549 84.1982 23.4878C86.1686 18.5383 93.1496 14.8404 98.3291 15.9213C100.637 16.3765 102.101 17.7418 102.608 20.1312C103.114 22.35 102.777 24.5118 102.326 26.6168C101.651 29.9165 100.525 33.0455 98.2165 35.5487C97.7098 36.0607 97.2594 36.3451 96.5275 36.0607C95.9646 35.8331 95.3453 35.8331 94.7823 35.8331C93.2622 35.8331 91.6859 35.89 90.3347 36.8003C89.6591 37.2554 89.2087 37.9381 89.3776 38.7914C89.5465 39.7017 90.3347 39.8155 91.0103 39.9293C91.4044 39.9861 91.7985 39.9861 92.2489 39.9293C94.1067 39.7586 95.7957 39.1897 97.372 38.2225C97.935 37.8812 98.2728 37.995 98.6669 38.3363C100.074 39.4741 100.975 40.9533 101.426 42.66C102.946 48.3491 101.707 53.6968 99.624 58.9877C99.5677 59.1015 99.3988 59.4428 99.3988 59.4428C99.3988 59.4428 98.9484 59.4997 98.8358 59.5566C96.3024 60.1824 93.7126 60.7513 91.1229 61.3771C87.8013 62.1736 84.4797 62.8563 81.2706 63.7665C78.3431 64.6199 75.866 66.2697 74.4585 69.228C72.8259 72.6984 74.4585 75.7705 78.2305 76.2256C80.3699 76.5101 82.4529 76.1118 84.4234 75.486C91.4607 73.2104 96.9779 68.7729 101.313 62.7425C101.426 62.5718 101.707 62.1736 101.707 62.1736C101.707 62.1736 102.214 62.0029 102.495 62.0029C105.929 61.3202 109.42 60.6944 112.854 60.0117C123.551 57.9068 134.248 55.8018 144.944 53.5831C151.081 52.3315 157.161 50.9092 163.241 49.6576C163.861 49.5438 164.142 49.2594 164.311 48.6336C164.649 47.4388 165.099 46.2441 165.493 45.0494C165.718 44.3667 165.55 44.0823 164.818 44.253C164.592 44.3099 164.367 44.3667 164.198 44.3667C145.001 48.8611 125.746 53.2986 106.549 57.793C105.648 58.0205 104.747 58.1912 103.734 58.4188C105.254 54.6071 106.042 50.7385 105.423 46.7562C104.86 42.7738 102.946 39.4741 99.2862 37.1416ZM153.839 34.2402C153.671 34.4108 153.558 34.4108 153.558 34.4677C153.502 34.6953 153.445 34.9229 153.389 35.0935C152.714 38.4501 151.531 41.5222 149.504 44.3099C148.941 45.0494 148.153 45.7321 147.309 46.1873C146.127 46.8131 145.113 46.2441 144.888 44.8788C144.775 44.1392 144.719 43.2858 144.888 42.5462C145.451 40.3275 146.07 38.1656 146.746 36.0038C147.984 32.1352 149.223 28.2666 150.462 24.4549C150.743 23.6016 150.574 23.4309 149.73 23.6016C149.279 23.7154 148.829 23.886 148.379 23.9429C147.759 23.9998 147.478 24.3412 147.309 24.9101C146.239 28.3804 145.113 31.7939 144.044 35.2073C142.974 38.6777 141.735 42.148 139.596 45.1063C138.864 46.1304 138.02 47.0406 137.006 47.8371C135.88 48.6904 134.811 48.1784 134.811 46.7562C134.811 45.277 134.979 43.6841 135.43 42.2618C137.231 36.4589 140.215 28.1529 141.96 22.2931C142.411 22.1793 146.521 21.326 146.746 21.2122C146.915 21.1553 147.928 19.1641 148.21 18.4814C148.266 18.3107 148.097 18.197 147.816 18.197C147.534 18.2538 147.196 18.3107 147.027 18.3107C145.676 18.5952 144.381 18.8796 142.918 19.221C143.481 17.4005 144.044 15.8075 144.55 14.1577C144.719 13.7026 145.001 12.963 145.113 12.451C145.169 12.2803 145.001 12.0527 144.775 12.1096C144.55 12.1665 143.424 12.2803 142.805 12.451C142.186 12.6217 141.848 13.0199 141.566 13.8164C141.003 15.6938 140.384 17.5712 139.765 19.3917C139.652 19.6761 139.427 20.0175 139.146 20.0744C137.119 20.5864 135.036 21.0984 132.784 21.6104C133.403 19.7899 133.966 18.1401 134.473 16.4333C134.585 16.092 134.811 15.4093 135.036 14.8404C135.205 14.4422 135.036 14.1577 134.698 14.2146C134.022 14.3284 132.896 14.4991 132.615 14.6128C132.165 14.7266 131.827 15.1249 131.602 15.8075C130.982 17.7987 130.307 19.733 129.744 21.6673C129.575 22.1793 129.293 22.4069 128.787 22.5207C126.366 23.0896 121.524 24.1705 121.524 24.1705C121.524 24.1705 120.511 24.3981 120.173 24.4549C119.779 24.5687 119.666 24.6825 119.441 24.9101C119.216 25.1945 118.484 26.503 118.484 26.503C118.484 26.503 117.865 27.5271 118.202 27.5839C118.54 27.6408 118.934 27.5271 119.216 27.4133C122.256 26.7306 125.296 25.991 128.449 25.2514C128.336 25.5928 128.336 25.7634 128.224 25.991C126.704 30.656 125.184 35.3211 123.663 39.9861C122.537 43.4565 120.905 46.6993 118.709 49.6576C117.471 51.3074 116.063 52.7866 113.924 53.3555C112.742 53.6968 111.897 53.3555 111.559 52.1608C111.278 51.1368 111.053 49.3731 111.165 47.5526C111.278 47.4957 111.897 47.0975 112.46 46.813C116.288 44.8219 119.723 41.4084 121.468 36.9709C122.031 35.6056 122.312 34.1833 121.918 32.7041C121.468 30.9405 120.117 30.2009 118.484 30.9974C117.696 31.3956 116.851 31.8508 116.176 32.4766C112.235 36.0038 109.758 40.4982 108.519 45.6183C107.956 47.894 107.844 50.2265 108.688 52.4452C109.701 55.2329 112.066 56.2 114.768 54.9484C117.02 53.8675 118.597 52.047 120.004 50.0558C120.567 49.2594 121.13 48.3491 121.693 47.4388C121.806 48.2353 121.862 48.8611 122.087 49.4869C122.932 52.3883 125.69 53.2417 127.942 51.1936C128.618 50.5678 129.237 49.8283 129.8 49.0887C130.476 48.1215 131.095 47.0975 131.77 46.0735C131.939 46.6993 132.052 47.2682 132.277 47.7802C133.234 50.1127 135.43 50.9092 137.457 49.3731C138.414 48.6904 139.258 47.6664 139.99 46.6993C140.722 45.789 141.285 44.7081 141.96 43.5703C142.017 43.9116 142.073 44.0823 142.073 44.3099C142.636 47.1544 144.607 48.4629 147.253 47.4388C151.362 45.8459 153.952 42.7169 154.853 38.3363C155.247 37.0278 154.628 35.6056 153.839 34.2402ZM78.2305 59.1015C77.949 60.0117 77.6675 60.8651 77.386 61.7184C77.1608 62.458 76.7668 64.051 76.7668 64.051L80.201 63.3683C80.201 63.3683 80.4262 62.6856 80.5388 62.2874C82.2277 56.9965 83.9167 51.7626 85.6056 46.4717C87.2946 41.2377 89.0961 36.0038 90.7851 30.7698C90.8977 30.4854 90.8977 30.0871 90.8414 29.9165C90.7851 29.7458 90.2221 29.9734 89.9406 30.0871C89.3213 30.3716 88.7583 30.7698 88.0828 31.0543C87.4635 31.2819 87.182 31.737 87.0131 32.3628C86.056 35.3211 85.0989 38.3363 84.0856 41.2946C82.6781 45.277 81.3832 49.3162 79.7506 53.2417C78.512 56.2569 76.7668 59.1015 74.3459 61.3202C73.3888 62.1167 72.2629 62.7425 71.1369 63.2545C69.9546 63.7665 69.0539 63.3114 68.7161 62.0598C68.4346 60.8651 68.4346 58.817 68.322 57.5654C68.4346 57.4516 68.6035 57.3379 69.1665 57.0534C72.8822 55.1191 75.9223 52.3315 77.949 48.5767C78.8498 46.8699 79.4691 45.1063 79.1876 43.1151C78.9061 41.0671 77.3297 40.1568 75.5282 41.0671C74.6274 41.5222 73.7266 42.148 72.9948 42.8307C69.4479 46.1304 67.0271 50.2265 65.9011 55.0053C65.1693 58.0205 63.8744 60.6944 62.1854 63.2545C61.5661 64.1648 60.778 65.0181 59.8772 65.7008C58.5823 66.7248 57.4564 66.2128 57.4564 64.563C57.4564 63.0838 57.6816 61.6047 58.1319 60.1824C61.1721 50.7954 64.2685 41.4653 67.3649 32.1352C67.4775 31.8508 67.6464 31.2819 67.8153 30.8267C67.9842 30.3716 67.8153 30.0303 67.4212 30.0871C66.8582 30.2009 66.1826 30.3716 65.7885 30.4285C65.1693 30.5423 64.7189 30.7129 64.4937 31.5094C63.1425 35.7762 61.735 39.9861 60.3276 44.253C59.9335 45.5046 59.4831 46.6993 59.0327 48.0078C57.2875 45.789 55.3733 45.3908 52.9525 46.5286C52.5021 46.7562 51.9954 47.0406 51.6013 47.3251C46.1403 51.5919 43.3817 57.1672 43.4943 64.1079C43.4943 65.5301 44.001 67.0662 44.564 68.3747C45.5211 70.5365 47.773 71.2192 49.7998 70.0245C50.8131 69.4556 51.7702 68.5453 52.5584 67.6351C53.3466 66.7248 53.9658 65.6439 54.6414 64.563C54.754 64.9043 54.8103 65.2457 54.9229 65.5301C55.7111 68.0902 58.2445 69.0005 60.3839 67.4075C61.1721 66.8386 61.8476 66.099 62.4106 65.3026C63.4803 63.7665 64.3811 62.1167 65.3382 60.5806C65.5633 61.2633 65.7322 62.0598 66.07 62.7994C67.0834 65.075 69.0539 65.9853 71.3621 65.0181C72.657 64.5061 73.8392 63.6527 74.9089 62.7425C76.0912 61.7184 77.1045 60.41 78.2305 59.1015ZM83.3537 61.7753C83.5789 61.7753 83.7478 61.7753 83.8604 61.7753C88.5895 60.6944 93.3185 59.5566 98.0476 58.4188C98.2165 58.3619 98.7232 58.2481 98.7232 58.2481C98.7232 58.2481 98.8921 57.793 98.9484 57.6792C100.3 54.0382 100.975 50.2834 100.694 46.4148C100.525 44.6512 100.074 42.9445 99.0047 41.4653C98.6669 41.0102 98.3854 40.8395 97.7661 41.124C95.2327 42.3187 92.6429 42.9445 89.7717 42.148C87.6324 48.6904 85.493 55.176 83.3537 61.7753ZM92.3615 34.5815C93.8252 34.5815 95.2327 34.5246 96.6401 34.6384C97.3157 34.6953 97.7661 34.5246 98.1039 34.0126C100.637 30.3147 101.594 26.2186 101.369 21.7811C101.257 19.6761 100.131 18.5952 98.0476 18.4814C93.4311 18.1401 89.7717 20.0175 87.0694 23.7723C86.5627 24.4549 86.3375 25.3652 86.1123 26.2186C85.8871 27.2995 86.3938 27.6977 87.4072 27.4133C88.7584 27.015 89.5465 25.991 89.9969 24.6256C90.4473 23.4309 91.3481 22.8051 92.3052 23.0896C93.6 23.4309 94.6697 24.8532 94.3882 25.9341C94.163 26.9013 93.7689 27.8684 93.4874 28.8355C93.3748 29.12 93.2622 29.3476 93.1496 29.4045C93.6563 29.9734 93.4311 30.6561 93.3748 30.9974C93.0933 32.1352 92.7555 33.3299 92.3615 34.5815ZM146.408 23.886C145.62 24.0567 145.169 24.2274 144.719 24.2843C144.1 24.3412 143.818 24.6825 143.649 25.2514C141.623 31.3956 139.596 37.5398 137.625 43.7409C137.4 44.4805 137.175 45.7321 137.119 45.9597C137.063 46.1872 137.231 46.2441 137.457 46.0735C137.682 45.9028 139.709 43.0014 140.328 41.2377C142.467 35.5487 144.325 29.8027 146.408 23.886ZM78.6809 52.559C76.7668 55.0622 74.4022 57.1103 71.6999 58.7032C71.3621 58.9308 70.5176 59.329 70.5176 59.329C70.5176 59.329 70.5176 60.41 70.6865 61.2064C70.7991 61.8322 71.0243 62.1167 71.6436 61.7184C72.2629 61.3202 72.9385 60.922 73.5014 60.41C75.866 58.2481 77.3297 55.4036 78.6809 52.559ZM120.961 43.4565C118.934 45.8459 116.57 47.7233 113.867 49.2594C113.811 49.3162 113.53 49.4869 113.53 49.4869V49.7714C113.53 49.7714 113.586 51.3074 113.586 51.5919C113.586 51.8763 113.868 52.1039 114.093 52.1039C114.318 52.1039 115.162 51.5919 115.613 51.2505C118.259 49.2594 119.61 46.3579 120.961 43.4565ZM152.094 18.7659C152.094 17.5143 151.193 16.8885 150.293 17.3436C149.392 17.7987 148.547 19.2779 148.604 20.245C148.66 21.3828 149.617 21.9518 150.574 21.2691C151.531 20.7002 151.982 19.733 152.094 18.7659ZM121.806 29.632C123.382 30.4854 124.114 31.737 124.564 33.4437C125.127 31.737 125.578 30.2578 126.141 28.6649C124.677 28.9493 123.382 29.2338 121.806 29.632ZM107.337 56.3138C107.844 56.2 108.238 56.0863 108.688 56.0294C108.407 55.5173 108.125 55.1191 107.787 54.6071C107.562 55.2329 107.449 55.688 107.337 56.3138ZM118.09 70.8779C118.878 68.8298 119.723 66.2128 119.835 65.4732C120.004 64.7337 120.004 64.051 120.004 64.051C120.004 64.051 120.792 64.1647 121.524 63.9941C122.256 63.8234 123.663 63.4821 123.663 63.4821L124.621 64.2785L124.114 66.1559L122.819 67.2937C122.819 67.2937 122.819 68.204 123.044 68.9436C123.044 69.0005 123.326 69.8538 123.326 69.8538L121.524 70.1952V67.9195H120.567C120.567 67.9195 120.229 69.1143 120.004 70.5365C119.272 70.5934 118.54 70.7072 118.09 70.8779ZM120.792 66.7817C120.792 66.7817 121.58 66.7817 121.806 66.7248C122.087 66.6679 122.932 65.5301 122.932 65.5301L122.537 64.7905L121.355 65.075L120.792 66.7817ZM111.784 71.9588C112.516 69.7969 113.53 67.1231 113.586 65.3595C113.811 65.3595 114.205 65.3595 114.43 65.3026C115.275 65.075 116.457 64.9043 117.302 64.7905C117.471 65.0181 117.921 65.5301 118.146 65.8146C117.865 66.8955 117.133 69.8538 117.133 69.8538C117.133 69.8538 115.951 71.2192 115.331 71.6174C114.543 71.7312 113.023 71.845 111.784 71.9588ZM113.755 70.4227C114.825 70.309 115.444 69.8538 115.725 69.0574C115.951 68.4316 116.57 66.4973 116.57 66.4973L115.951 66.099C115.951 66.099 115.219 66.2697 114.881 66.3266C114.543 67.5782 114.149 69.0574 113.755 70.4227ZM148.153 65.2457C148.773 63.0269 149.392 60.922 150.067 58.5894C151.025 58.4188 153.502 57.9068 153.502 57.9068L154.571 58.9877L153.502 62.97C153.502 62.97 152.151 64.2216 151.588 64.6768C150.63 64.8474 149.054 65.075 148.153 65.2457ZM150.124 63.4252C150.124 63.4252 150.124 63.7096 150.18 63.8234C150.574 63.6527 151.475 63.4821 151.644 63.1407C152.094 62.3442 152.882 59.841 152.882 59.841L152.432 59.4428H151.306L150.124 63.4252ZM136.837 61.1495C136.725 61.3202 136.5 61.5478 136.443 61.7753C136.443 62.0598 136.443 65.7577 136.5 67.6351C135.768 67.5782 135.036 67.5782 134.416 67.8058C134.642 67.2937 134.979 66.3266 134.979 66.3266L133.29 66.5542C133.29 66.5542 132.615 67.1231 132.502 68.3747C132.277 68.4316 131.264 68.5453 130.701 68.716C131.714 66.7817 132.615 65.3026 133.459 63.5958C133.741 63.0838 134.191 62.7994 134.248 61.6047C135.261 61.6047 136.274 61.2633 136.837 61.1495ZM134.979 62.7994L133.685 65.3026L134.979 65.1319V62.7994ZM140.666 65.3026C140.497 65.587 139.202 65.4163 139.202 65.4163V64.7905C139.202 64.7905 139.709 62.97 140.215 62.0598C140.778 61.0926 141.848 61.2064 142.805 61.3202C142.805 60.8082 142.805 60.3531 142.805 59.841C142.073 59.9548 140.891 60.0117 140.328 60.3531C139.483 60.8651 139.033 61.2064 138.526 62.0598C137.963 63.0269 137.794 64.3923 137.513 65.4732C137.288 66.2128 138.02 67.0662 138.414 67.0093C139.314 67.0093 140.046 66.7248 140.891 66.3835C142.636 65.6439 142.242 63.7096 143.086 62.6287C142.298 62.97 141.566 62.97 141.003 62.97C141.285 63.8234 140.947 64.7906 140.666 65.3026ZM146.183 60.41C146.183 60.41 147.478 60.1824 148.66 60.1255C148.66 59.7273 148.604 59.329 148.604 58.817C147.534 59.0446 146.521 59.2721 146.127 59.329C145.732 59.3859 145.338 59.3859 144.944 59.3859C144.944 59.3859 143.987 64.2216 143.03 66.2128C143.818 66.0421 147.084 65.5301 147.084 65.5301C147.084 65.5301 147.196 64.3923 147.647 63.8234C147.14 63.9941 146.746 64.2216 146.295 64.3354C145.901 64.4492 145.057 64.5061 145.057 64.5061L145.62 62.7425C145.62 62.7425 146.521 62.6856 147.14 62.7425C147.14 62.2305 147.253 61.6616 147.534 61.0926C147.084 61.434 145.901 61.5478 145.901 61.5478L146.183 60.41ZM127.098 69.1143C126.985 67.7489 127.379 66.4973 128.224 65.4163C129.012 64.3923 129.913 63.3114 130.757 62.1736C129.8 62.2874 129.068 62.458 128.674 62.5718C128.787 63.3683 127.661 64.4492 127.323 64.9612C127.267 64.9612 127.154 64.9043 127.098 64.9043C127.041 64.4492 126.929 63.6527 127.154 62.7994C126.591 62.9132 125.69 63.0838 125.015 63.1976C126.197 65.8146 126.478 67.4644 124.846 69.6263C125.634 69.4556 126.478 69.2849 127.098 69.1143ZM97.7098 62.97C94.6697 67.6351 90.954 71.2192 85.9997 73.2104C84.3108 73.8931 82.5655 74.3482 80.764 74.6327C79.6943 74.8033 78.4557 74.5758 77.386 74.2344C76.0349 73.7793 75.5845 72.4139 76.0349 71.0485C76.7105 69.0574 78.1179 67.692 80.0321 67.0093C82.2277 66.2697 84.536 65.7008 86.8442 65.1888C90.3347 64.3923 93.9378 63.7096 97.7098 62.97ZM93.2622 66.4973C91.0103 66.9524 88.702 67.3506 86.4501 67.9195C84.6486 68.3747 82.7907 68.8298 81.0454 69.4556C79.8632 69.8538 79.0187 70.7641 78.4557 71.9588C78.1742 72.6415 78.3431 73.0966 79.0187 73.1535C79.9195 73.2673 80.9329 73.3811 81.8336 73.2104C86.3938 72.357 90.1095 69.9676 93.2622 66.4973ZM90.8414 38.7346C92.8118 39.0759 94.5008 38.3932 96.3024 37.3123C93.7689 36.6865 90.954 37.4261 90.8414 38.7346ZM138.639 23.0327C137.625 26.1617 136.668 29.12 135.655 32.0783C134.473 35.5487 133.459 39.0759 132.052 42.4893C131.264 44.4805 130.025 46.3579 128.843 48.1784C128.336 48.9749 127.435 49.6576 126.647 50.1696C125.746 50.7385 124.846 50.3403 124.789 49.2594C124.733 47.894 124.789 46.4717 125.184 45.1632C126.76 39.9293 128.561 34.7522 130.25 29.5751C130.701 28.1529 131.151 26.6737 131.658 25.2514C131.77 24.967 132.052 24.6256 132.277 24.5687C134.36 23.9998 136.387 23.5447 138.639 23.0327ZM136.218 26.2755C135.542 26.4461 135.092 26.5599 134.642 26.6168C134.022 26.6737 133.741 27.015 133.572 27.6408C131.602 33.7282 129.575 39.7586 127.604 45.8459C127.379 46.5855 127.098 48.0646 127.041 48.1784C127.041 48.2922 127.154 48.406 127.267 48.2922C127.379 48.1784 127.886 47.6095 128.111 47.2113C129.124 45.4477 130.25 43.7409 130.982 41.9204C132.221 38.7914 133.178 35.5487 134.248 32.3059C134.867 30.3147 135.542 28.3804 136.218 26.2755ZM120.229 34.354C120.286 33.9557 120.286 33.5575 120.286 33.1024C120.286 32.5334 120.004 32.3059 119.497 32.5903C118.934 32.9317 118.315 33.273 117.808 33.785C115.838 35.7193 114.543 38.1088 113.417 40.6119C112.742 42.148 112.235 43.7409 111.559 45.4477C115.5 43.5703 119.497 38.3363 120.229 34.354ZM46.4781 64.563C47.0411 58.817 48.899 53.8675 52.6147 49.7714C53.1777 49.1456 53.9095 48.6336 54.5851 48.2353C55.4859 47.7233 56.443 47.6095 57.2875 48.3491C58.1319 49.1456 58.3571 50.1127 58.0193 51.1936C57.1186 53.9244 56.1615 56.5983 55.3733 59.329C54.6414 61.7753 53.4592 63.9941 51.9954 66.099C51.4324 66.8955 50.7005 67.6351 49.9124 68.2609C48.6175 69.228 47.2663 68.716 46.8722 67.1231C46.647 66.2128 46.5907 65.2457 46.4781 64.563ZM56.4993 50.2834C56.1615 50.1696 55.4296 50.6816 55.0918 51.0799C54.0784 52.2746 53.0088 53.4693 52.2206 54.7778C50.1938 58.1343 49.0116 61.8322 48.9553 65.8146C48.9553 66.2128 49.0679 67.0093 49.3494 67.1231C49.6872 67.2369 50.2501 66.7817 50.5316 66.4404C51.2635 65.4163 52.2769 63.9941 53.1777 61.8891C54.1347 59.7842 56.5556 51.9332 56.7245 51.0799C56.7808 50.8523 56.8371 50.3972 56.4993 50.2834ZM76.429 46.9837C76.9357 45.8459 77.2734 44.5374 77.4986 43.2858C77.6675 42.4325 77.2171 42.148 76.429 42.5462C75.9223 42.8307 75.3593 43.172 74.9652 43.5703C71.8688 46.813 70.1798 50.8523 68.9976 55.1191C72.3192 53.1279 74.8526 50.4541 76.429 46.9837Z" fill="black"/>
</g>
<defs>
<clipPath id="clip0_4_753">
<rect width="210" height="89.9999" fill="white"/>
</clipPath>
</defs>
</svg>
