<svg width="210" height="90" viewBox="0 0 210 90" fill="none" xmlns="http://www.w3.org/2000/svg">
<g clip-path="url(#clip0_4_728)">
<path d="M46.1181 30C45.4712 30.4806 44.1958 31.5342 44.1958 33.2162C44.1958 34.2883 44.5285 35.3604 45.1384 36.2476C41.6634 38.5396 36.8206 43.2161 36.8206 47.7447C36.8206 50.5728 38.5951 52.4212 41.4047 52.4212C43.8261 52.4212 46.0996 51.3121 47.8741 49.8149L47.948 49.8888C45.3787 53.9184 41.7004 59.8518 36.2476 59.8518C33.6414 59.8518 31.2939 58.4654 31.2939 56.1734C31.2939 55.8962 31.2939 55.6374 31.3678 55.2862C31.5157 55.3601 31.8669 55.3971 32.0148 55.3971C32.8096 55.4341 33.3456 54.8611 33.3456 54.0478C33.3456 53.3269 32.7356 52.6984 32.0148 52.6984C30.61 52.6984 30 53.9184 30 55.2307C30 58.2252 32.7172 60.2954 36.1367 60.2954C43.327 60.2954 48.1329 53.789 51.2382 48.1144C52.2918 46.7281 53.5487 45.4712 53.5487 44.8982C53.5487 44.436 53.216 44.3251 52.9018 44.3251C50.5543 44.3251 49.9813 46.0442 49.0016 48.1513C48.5395 49.1495 45.1384 51.7927 42.3474 51.7927C39.889 51.7927 39.242 50.1107 39.242 47.9295C39.242 44.3621 42.9204 39.1866 45.8224 37.1164C47.7447 39.0757 50.4803 39.6117 52.7908 39.6117C56.3768 39.6117 60.6651 38.4287 60.6651 35.0831C60.6651 32.902 58.3176 32.4029 56.5061 32.4029C52.606 32.4029 48.7428 33.9001 45.4896 35.9334C44.9906 35.3234 44.6579 34.2144 44.6579 33.1423C44.6579 31.8854 45.2309 31.2199 46.3584 30.2218L46.1181 30ZM59.1309 34.7504C59.1309 37.6339 55.9886 39.1496 52.8093 39.1496C49.8519 39.1496 47.3565 38.2993 46.1181 36.8206C48.6504 34.8243 52.5136 32.865 55.8037 32.865C57.1716 32.8835 59.1309 32.9574 59.1309 34.7504Z" fill="black"/>
<path d="M56.0812 47.5597C53.2716 51.9034 50.6099 56.1547 48.0037 60.4246H50.4066C51.1829 58.5207 52.3659 56.5799 53.3271 55.4893C56.0257 52.421 58.5026 50.1105 60.4804 48.7242L60.5543 48.7981C60.2956 49.2417 60.1477 49.8517 60.1477 50.4062C60.1477 52.1252 61.1828 53.1788 62.7724 53.1788C64.5839 53.1788 66.0996 51.6816 67.1347 50.702L66.9129 50.5541C65.9887 51.3674 64.5839 52.7167 63.1051 52.7167C62.2918 52.7167 61.6264 52.0513 61.6264 50.8868C61.6264 49.4266 62.5876 48.1881 63.4379 47.3379C62.9942 47.3009 62.5876 47.2639 62.07 47.2639C61.1828 47.2639 61.0349 47.5966 60.7761 48.0772C58.1144 49.9071 55.12 52.8276 53.7337 54.5466L53.6598 54.4727L58.3547 47.5597H56.0812Z" fill="black"/>
<path d="M75.101 49.704H75.0271C74.7683 48.4656 73.9365 47.2456 71.9957 47.2456C67.9477 47.2456 62.3101 53.6781 62.3101 57.6706C62.3101 59.0939 62.957 60.4063 64.7315 60.4063C66.8202 60.4063 69.5004 57.9479 70.7573 56.5616L70.8312 56.5985C70.5724 57.264 70.3321 57.9109 70.3321 58.6133C70.3321 59.593 70.9791 60.4063 72.3469 60.4063C75.674 60.4063 80.4429 54.3989 82.9937 50.4249L82.7719 50.3509C79.3339 55.6559 74.7498 59.9811 72.7351 59.9811C72.0881 59.9811 71.7554 59.6854 71.7554 59.0384C71.7554 57.3194 75.0825 52.606 78.613 47.5414H76.2655L75.101 49.704ZM64.4912 57.7815C64.4912 53.3823 69.4079 47.6892 72.2545 47.6892C73.1602 47.6892 73.8811 48.3177 73.8811 49.4082C73.8811 53.7335 68.2065 59.5375 65.7851 59.5375C64.9533 59.5375 64.4912 58.8906 64.4912 57.7815Z" fill="black"/>
<path d="M83.881 47.4675C81.8108 50.961 78.3728 56.0072 75.748 60.4249H78.077C79.7591 56.8944 86.6352 47.5045 90.3689 47.5045C91.0159 47.5045 91.4595 47.8003 91.4595 48.4102C91.4595 50.9241 85.6925 55.4342 85.6925 58.4286C85.6925 59.8334 86.7461 60.7021 88.2063 60.7021C90.3874 60.7021 92.7349 58.6134 94.99 56.1366C96.8199 54.1218 98.5204 51.8483 99.4816 50.3326L99.2228 50.1847C98.3541 51.6265 95.9696 54.6578 94.0103 56.6726C91.5334 59.2234 89.8144 60.24 88.2433 60.24C87.5224 60.24 87.1897 59.8519 87.1897 59.168C87.1897 57.2271 92.9567 51.7189 92.9567 49.2605C92.9567 47.9666 92.088 47.0239 90.5907 47.0239C87.1712 47.0239 83.5483 51.8113 81.4411 54.3621L81.3672 54.2882L86.3209 47.3382L83.881 47.4675Z" fill="black"/>
<path d="M117.319 33.8447L107.652 49.4453H107.541C107.578 47.8926 106.561 46.7466 104.953 46.7466C100.683 46.7466 94.1582 53.3639 94.1582 57.6152C94.1582 59.1309 95.1748 60.4248 96.9678 60.4248C99.5925 60.4248 101.885 57.7631 103.493 55.9517L103.567 55.9886C103.197 56.6725 102.661 57.6522 102.661 58.6134C102.661 59.6854 103.419 60.4433 105.027 60.4433C106.672 60.4433 108.705 58.9276 110.683 56.8759C112.79 54.7132 114.768 51.9776 115.711 50.314L115.415 50.1661C114.066 52.4027 112.106 54.9535 110.165 56.8574C107.947 59.02 106.376 60.0182 105.138 60.0182C104.62 60.0182 104.306 59.63 104.306 59.1124C104.306 56.4507 113.899 43.3825 119.796 33.9002H117.319V33.8447ZM106.487 49.4822C106.487 52.5136 100.406 59.5006 97.7811 59.5006C96.7275 59.5006 96.3948 58.7058 96.3948 57.6337C96.3948 54.1772 101.755 47.1902 104.787 47.1902C106.265 47.2087 106.487 48.2623 106.487 49.4822Z" fill="black"/>
<path d="M141.607 38.3734C141.57 38.6876 141.57 39.0942 141.57 39.4085C141.644 41.719 143.27 42.5508 145.248 42.5508C148.963 42.5508 152.642 39.9075 152.642 36.3031C152.642 33.7708 151.052 32.3845 147.91 32.3845C140.11 32.3845 126.856 43.6598 126.856 53.4009C126.856 56.192 128.668 60.3139 133.899 60.3139C140.904 60.3139 144.694 54.4915 144.694 50.8686C144.694 47.8002 143.141 46.6542 139.999 46.6542L140.036 47.1163C142.05 47.1163 143.326 48.2254 143.326 50.2586C143.326 54.7502 139 59.8518 134.047 59.8518C130.646 59.8518 129.278 56.7835 129.278 53.863C129.278 43.3456 141.237 32.8466 148.058 32.8466C150.035 32.8466 151.274 33.4566 151.274 35.5638C151.274 39.0942 147.984 42.0887 145.285 42.0887C143.658 42.0887 142.032 41.4047 142.032 39.2791C142.032 38.9279 142.032 38.6691 142.069 38.3549H141.607V38.3734Z" fill="black"/>
<path d="M152.143 47.5228C149.333 51.8665 146.672 56.1549 144.028 60.4247H146.431C147.208 58.5208 148.391 56.5615 149.352 55.4709C152.05 52.4026 154.527 50.0736 156.542 48.6873L156.616 48.7612C156.357 49.2048 156.209 49.8148 156.209 50.3693C156.209 52.0884 157.244 53.1419 158.834 53.1419C160.645 53.1419 162.161 51.6447 163.196 50.6651L162.974 50.5172C162.05 51.349 160.645 52.6983 159.167 52.6983C158.353 52.6983 157.688 52.0144 157.688 50.8684C157.688 49.4082 158.649 48.1697 159.499 47.301C159.056 47.264 158.649 47.2271 158.132 47.2271C157.244 47.2271 157.097 47.5598 156.838 48.0588C154.176 49.8888 151.182 52.8277 149.758 54.5467L149.684 54.4728L154.379 47.5413H152.143V47.5228Z" fill="black"/>
<path d="M164.305 47.5415C160.405 53.1791 157.725 56.1736 157.725 58.6319C157.725 59.5746 158.372 60.4249 159.887 60.4249C162.087 60.4249 164.435 58.3362 166.505 56.0072L166.579 56.0811C166.431 56.3029 166.006 57.3935 166.006 58.3547C166.006 59.5931 166.874 60.4434 168.205 60.4434C171.81 60.4434 177.262 53.0498 179 50.6099L178.63 50.499C177.004 52.8834 171.366 60.0182 168.409 60.0182C167.799 60.0182 167.429 59.5377 167.429 58.9647C167.429 57.3565 169.277 54.7873 174.508 47.597H172.013L168.834 52.4952C167.817 54.0664 163.233 59.8889 160.497 59.8889C159.887 59.8889 159.444 59.5192 159.444 58.7613C159.444 57.1162 162.919 52.791 166.671 47.597H164.305V47.5415Z" fill="black"/>
</g>
<defs>
<clipPath id="clip0_4_728">
<rect width="210" height="89.9999" fill="white"/>
</clipPath>
</defs>
</svg>
